Clear And Present Danger 1994 BluRay 1080p ac3 x264-LoNeWoLf

Encoded by Tequila-Bob a.k.a. bobnjeff a.k.a.LoNeWoLf

Source NTSC BluRay Disc


 
http://www.imdb.com/title/tt0109444/

Clear and Present Danger (1994) 
  141 min  -  Action | Drama | Thriller   -  3 August 1994 (USA) 
 6.8/10 X  Users: 6.8/10 (29,960 votes) 118 reviews | Critics: 50 reviews 
CIA Analyst Jack Ryan is drawn into an illegal war fought by the US government against a Colombian drug cartel. 


Director: Phillip Noyce
Writers: Tom Clancy (novel), Donald Stewart (screenplay), and 2 more credits » 
Stars:Harrison Ford, Willem Dafoe and Anne Archer

Genres:Action | Drama | Thriller 

Rated PG-13 for some intense action/violence and language

Release Date:3 August 1994 (USA)

Storyline
Jack Ryan is back and this time the bad guys are in his own government. When Admiral James Greer becomes sick with cancer, Ryan is appointed acting CIA Deputy Director of Intelligence. Almost before he can draw a breath in his new position, one of the president's closest friends and his family are murdered in their sleep by what appears to by drug cartels. Ryan is called in to investigate, but unknown to him the CIA has already sent a secret field operative to lead an illegal paramilitary force in Colombia against cartels. Things get even more complicated when his team is set up and he loses and agent in the field and a friend of his wife's, who was the murdered agent's secretary is murdered that same day. Ryan must then risk not only his career, but his life to expose the truth behind the mystery. 

[img]http://torrent-stats.info/3e56/424fd438.png[/img]

See the full size 1920x816 PNG files at the link below
 
http://s1015.photobucket.com/albums/af279/tequila-bob/Clear%20And%20Present%20Danger%201994/


Format : Matroska 
File size : 8.00 GiB 
Duration : 2h 21mn 
Overall bit rate : 8 105 Kbps 
Encoded date : UTC 2010-12-06 11:06:54 
Writing application : mkvmerge v4.4.0 ('Die Wiederkehr') built on Oct 31 2010 21:52:48 
Writing library : libebml v1.0.0 + libmatroska v1.0.0 

Video 
ID : 1 
Format : AVC 
Format/Info : Advanced Video Codec 
Format profile : High@L4.1 
Format settings, CABAC : Yes 
Format settings, ReFrames : 5 frames 
Muxing mode : Container profile=Unknown@4.1 
Codec ID : V_MPEG4/ISO/AVC 
Duration : 2h 21mn 
Bit rate : 7 417 Kbps 
Width : 1 920 pixels 
Height : 848 pixels 
Display aspect ratio : 2.25:1 
Frame rate : 23.976 fps 
Color space : YUV 
Chroma subsampling : 4:2:0 
Bit depth : 8 bits 
Scan type : Progressive 
Bits/(Pixel*Frame) : 0.190 
Stream size : 7.21 GiB (90%) 
Writing library : x264 core 98 r1649 c54c47d 
Encoding settings : cabac=1 / ref=6 / deblock=1:0:0 / analyse=0x3:0x133 / me=umh / subme=9 / psy=1 / psy_rd=1.00:0.15 / mixed_ref=1 / me_range=24 / chroma_me=1 / trellis=1 / 8x8dct=1 / cqm=0 / deadzone=21,11 / fast_pskip=1 / chroma_qp_offset=-3 / threads=6 / sliced_threads=0 / nr=0 / decimate=1 / interlaced=0 / constrained_intra=0 / bframes=4 / b_pyramid=1 / b_adapt=1 / b_bias=0 / direct=1 / weightb=1 / weightp=2 / keyint=250 / keyint_min=25 / scenecut=40 / intra_refresh=0 / rc_lookahead=50 / rc=2pass / mbtree=1 / bitrate=7417 / ratetol=1.0 / qcomp=0.60 / qpmin=10 / qpmax=51 / qpstep=4 / cplxblur=20.0 / qblur=0.5 / ip_ratio=1.40 / aq=1:1.50 
Language : English 

Audio 
ID : 2 
Format : AC-3 
Format/Info : Audio Coding 3 
Mode extension : CM (complete main) 
Codec ID : A_AC3 
Duration : 2h 21mn 
Bit rate mode : Constant 
Bit rate : 640 Kbps 
Channel(s) : 6 channels 
Channel positions : Front: L C R, Side: L R, LFE 
Sampling rate : 48.0 KHz 
Bit depth : 16 bits 
Stream size : 647 MiB (8%) 
Title : 3/2+1 
Language : English 

Text 
Language : English 
Language : English 
Language : English 
Language : French 
Language : French 
Language : Spanish  
Language : Spanish 
Language : Portuguese 

Menu &^ Chapters 22

See the full size 1920x816 PNG files at the link below
 
http://s1015.photobucket.com/albums/af279/tequila-bob/Clear%20And%20Present%20Danger%201994/
